<svg width="12" height="12" viewBox="0 0 12 12" fill="none" xmlns="http://www.w3.org/2000/svg">
<path d="M6.43471 3.78939C7.76632 3.78939 8.3343 4.35592 8.3343 5.68413H9.6007C9.6007 3.64729 8.47677 2.52624 6.43471 2.52624V3.78939ZM8.60151 7.22708C8.47984 7.11678 8.31996 7.05795 8.15562 7.06302C7.99128 7.06808 7.83534 7.13665 7.72073 7.25424L6.20549 8.80855C5.84077 8.73908 5.10752 8.51108 4.35275 7.76013C3.59798 7.00666 3.36939 6.2734 3.30164 5.91213L4.85867 4.40013C4.97671 4.2859 5.04555 4.13033 5.05064 3.96637C5.05572 3.8024 4.99664 3.64289 4.8859 3.52161L2.54623 0.955499C2.43545 0.833829 2.28148 0.760028 2.11702 0.749768C1.95256 0.739508 1.79057 0.793599 1.66545 0.900551L0.291411 2.07592C0.181938 2.18551 0.116597 2.33136 0.107783 2.48582C0.0982852 2.64371 -0.0828096 6.38392 2.82484 9.2854C5.36143 11.8149 8.53883 11.9999 9.41391 11.9999C9.54181 11.9999 9.62033 11.9961 9.64122 11.9949C9.79605 11.9862 9.9422 11.9208 10.0515 11.8111L11.2293 10.4399C11.3366 10.3152 11.3909 10.1537 11.3808 9.98964C11.3706 9.8256 11.2967 9.67198 11.1748 9.5614L8.60151 7.22708Z" fill="white" fill-opacity="0.5"/>
</svg>
