<svg width="47" height="66" viewBox="0 0 47 66" fill="none" xmlns="http://www.w3.org/2000/svg">
<path fill-rule="evenodd" clip-rule="evenodd" d="M46.1413 23.0692C46.1437 26.7889 45.2457 30.4539 43.5239 33.7512C41.8021 37.0484 39.3077 39.8798 36.2538 42.0036V65.9146H27.7309L23.0706 61.2544L18.4104 65.9146H9.88741V42.0036C6.63195 39.7368 4.01598 36.6688 2.29214 33.096C0.568308 29.5232 -0.205151 25.5663 0.0464585 21.6073C0.298068 17.6484 1.56625 13.8212 3.72852 10.4954C5.8908 7.16957 8.87412 4.45748 12.3904 2.62104C15.9066 0.784597 19.837 -0.114149 23.8019 0.0115954C27.7669 0.13734 31.6324 1.28333 35.0252 3.33888C38.418 5.39444 41.2235 8.29011 43.1707 11.7463C45.1179 15.2024 46.141 19.1023 46.1413 23.0692ZM39.5496 23.0692C39.5496 27.4397 37.8135 31.6312 34.7231 34.7216C31.6326 37.812 27.4411 39.5482 23.0706 39.5482C18.7001 39.5482 14.5086 37.812 11.4182 34.7216C8.32779 31.6312 6.59161 27.4397 6.59161 23.0692C6.59161 18.6987 8.32779 14.5072 11.4182 11.4168C14.5086 8.32635 18.7001 6.59017 23.0706 6.59017C27.4411 6.59017 31.6326 8.32635 34.7231 11.4168C37.8135 14.5072 39.5496 18.6987 39.5496 23.0692ZM16.479 58.5221L23.0706 51.9305L29.6622 58.5221V45.184C27.5228 45.8197 25.3025 46.1417 23.0706 46.1398C20.8388 46.1417 18.6184 45.8197 16.479 45.184V58.5221Z" fill="white"/>
</svg>
